<svg xmlns="http://www.w3.org/2000/svg" xmlns:xlink="http://www.w3.org/1999/xlink" viewBox="0 0 120 120"><defs><style>.cls-1{fill:url(#linear-gradient);}.cls-2{fill:#fff;}</style><linearGradient id="linear-gradient" y1="60" x2="120" y2="60" gradientUnits="userSpaceOnUse"><stop offset="0.0006" stop-color="#4b8eae"/><stop offset="1" stop-color="#4c6898"/></linearGradient></defs><g id="Layer_2" data-name="Layer 2"><g id="Layer_1-2" data-name="Layer 1"><circle class="cls-1" cx="60" cy="60" r="60"/><path class="cls-2" d="M33.4953,70.8332,27.8967,49.5175h3.44l4.548,19.1142h-.1731l4.4909-19.1142h3.4542L38.1162,70.8332Z"/><path class="cls-2" d="M48.3207,52.2953a2.2423,2.2423,0,0,1-1.3889-.4393,1.5466,1.5466,0,0,1,0-2.4185,2.3974,2.3974,0,0,1,2.7637,0,1.5464,1.5464,0,0,1,0,2.4185A2.2223,2.2223,0,0,1,48.3207,52.2953Zm-1.554,18.4518V55.4613h3.08V70.7471Z"/><path class="cls-2" d="M55.1,64.1979V61.7654H66.3552l-.4313.72V62.14a4.6531,4.6531,0,0,0-.5042-2.1514,3.8748,3.8748,0,0,0-1.504-1.583,4.8,4.8,0,0,0-2.4967-.5974,5.2348,5.2348,0,0,0-2.6267.64,4.4393,4.4393,0,0,0-1.7561,1.8132,5.9046,5.9046,0,0,0-.6263,2.8138,6.32,6.32,0,0,0,.6044,2.8718,4.2979,4.2979,0,0,0,1.742,1.8492,5.4024,5.4024,0,0,0,2.72.6484,7.324,7.324,0,0,0,1.9213-.2232,4.2379,4.2379,0,0,0,1.3388-.5974,2.8949,2.8949,0,0,0,.7985-.8134,2.0286,2.0286,0,0,0,.3172-.8706h3.1089a4.5371,4.5371,0,0,1-.6114,1.8492,5.6969,5.6969,0,0,1-1.4829,1.6551A7.4906,7.4906,0,0,1,64.535,70.625a10.3916,10.3916,0,0,1-3.159.4383,8.4332,8.4332,0,0,1-4.1887-1.0067,7.1856,7.1856,0,0,1-2.8068-2.8,8.9011,8.9011,0,0,1,.0141-8.2543A7.2361,7.2361,0,0,1,57.23,56.2168a8.4693,8.4693,0,0,1,4.16-1,8.1431,8.1431,0,0,1,4.1377,1.0077,6.9222,6.9222,0,0,1,2.6987,2.7777,8.4793,8.4793,0,0,1,.9506,4.0727q0,.274-.015.6334a3.2955,3.2955,0,0,1-.043.4893Z"/><path class="cls-2" d="M74.1422,70.7471l-3.239-15.2858h3.239L76.6178,69.61h-.5473l3.7283-14.149h2.5327L78.474,70.7471Zm10.4347,0L80.6623,55.4613H83.195L86.9523,69.61h-.5332l2.4475-14.149h3.2381L88.8806,70.7471Z"/></g></g></svg>