<svg width="96" height="96" viewBox="0 0 96 96" fill="none" xmlns="http://www.w3.org/2000/svg">
<g clip-path="url(#clip0_17_2)">
<g clip-path="url(#clip1_17_2)">
<path d="M48 96C74.5097 96 96 74.5097 96 48C96 21.4903 74.5097 0 48 0C21.4903 0 0 21.4903 0 48C0 74.5097 21.4903 96 48 96Z" fill="url(#paint0_linear_17_2)"/>
<path d="M26.7962 56.6666L22.3174 39.614H25.0694L28.7078 54.9054H28.5693L32.162 39.614H34.9254L30.493 56.6666H26.7962Z" fill="white"/>
<path d="M38.6566 41.8362C38.2574 41.846 37.8664 41.7223 37.5454 41.4848C37.4001 41.3689 37.2827 41.2218 37.2021 41.0543C37.1214 40.8868 37.0795 40.7033 37.0795 40.5174C37.0795 40.3315 37.1214 40.148 37.2021 39.9805C37.2827 39.813 37.4001 39.6659 37.5454 39.55C37.8689 39.3218 38.2551 39.1994 38.6509 39.1994C39.0468 39.1994 39.4329 39.3218 39.7564 39.55C39.9018 39.6659 40.0192 39.813 40.0998 39.9805C40.1805 40.148 40.2224 40.3315 40.2224 40.5174C40.2224 40.7033 40.1805 40.8868 40.0998 41.0543C40.0192 41.2218 39.9018 41.3689 39.7564 41.4848C39.4391 41.7211 39.0521 41.8447 38.6566 41.8362ZM37.4134 56.5977V44.369H39.8774V56.5977H37.4134Z" fill="white"/>
<path d="M44.08 51.3583V49.4123H53.0842L52.7391 49.9883V49.712C52.7448 49.1142 52.6065 48.5239 52.3358 47.9909C52.0644 47.4621 51.6467 47.0225 51.1326 46.7245C50.5225 46.3868 49.832 46.2216 49.1352 46.2466C48.402 46.2303 47.6774 46.4068 47.0338 46.7586C46.4351 47.096 45.947 47.5998 45.629 48.2091C45.2785 48.9065 45.1064 49.6799 45.1279 50.4602C45.1066 51.2533 45.2722 52.0403 45.6114 52.7576C45.9163 53.3799 46.4021 53.8955 47.005 54.237C47.6723 54.5978 48.4228 54.7767 49.181 54.7557C49.699 54.7644 50.2159 54.7043 50.7181 54.5771C51.1001 54.4812 51.4626 54.3195 51.7891 54.0992C52.0431 53.9268 52.2602 53.7056 52.4279 53.4485C52.5651 53.239 52.652 53.0006 52.6817 52.752H55.1688C55.1148 53.2747 54.9479 53.7795 54.6797 54.2314C54.375 54.7463 53.9719 55.1962 53.4934 55.5554C52.9317 55.9772 52.3003 56.2969 51.628 56.5C50.8087 56.7462 49.9562 56.8645 49.1008 56.8506C47.9329 56.8768 46.7783 56.5993 45.7498 56.0453C44.8061 55.524 44.028 54.7477 43.5044 53.8053C42.9729 52.7855 42.6964 51.6521 42.6983 50.5022C42.7003 49.3522 42.9807 48.2198 43.5157 47.2018C44.049 46.2619 44.8347 45.4899 45.784 44.9734C46.8066 44.4263 47.9525 44.1509 49.112 44.1734C50.2674 44.1438 51.4098 44.422 52.4222 44.9796C53.3386 45.4998 54.0876 46.2707 54.5811 47.2018C55.1027 48.2073 55.3641 49.3274 55.3416 50.4599C55.3416 50.6061 55.3376 50.775 55.3296 50.9666C55.3279 51.0978 55.3164 51.2286 55.2952 51.3581L44.08 51.3583Z" fill="white"/>
<path d="M59.3138 56.5977L56.7226 44.369H59.3138L61.2942 55.688H60.8564L63.839 44.3688H65.8652L62.7792 56.5977H59.3138ZM67.6615 56.5977L64.5298 44.369H66.556L69.5618 55.688H69.1353L71.0933 44.3688H73.6838L71.1045 56.5977H67.6615Z" fill="white"/>
</g>
</g>
<defs>
<linearGradient id="paint0_linear_17_2" x1="0" y1="48" x2="96" y2="48" gradientUnits="userSpaceOnUse">
<stop offset="0.0006" stop-color="#4B8EAE"/>
<stop offset="1" stop-color="#4C6898"/>
</linearGradient>
<clipPath id="clip0_17_2">
<rect width="96" height="96" fill="white"/>
</clipPath>
<clipPath id="clip1_17_2">
<rect width="96" height="96" fill="white"/>
</clipPath>
</defs>
</svg>
