<svg width="32" height="32" viewBox="0 0 32 32" fill="none" xmlns="http://www.w3.org/2000/svg">
<g clip-path="url(#clip0_17_2)">
<g clip-path="url(#clip1_17_2)">
<path d="M16 32C24.8366 32 32 24.8366 32 16C32 7.16344 24.8366 0 16 0C7.16344 0 0 7.16344 0 16C0 24.8366 7.16344 32 16 32Z" fill="url(#paint0_linear_17_2)"/>
<path d="M8.93208 18.8889L7.43912 13.2047H8.35645L9.56925 18.3018H9.52309L10.7207 13.2047H11.6418L10.1643 18.8889H8.93208Z" fill="white"/>
<path d="M12.8855 13.9454C12.7525 13.9487 12.6221 13.9074 12.5151 13.8283C12.4667 13.7896 12.4276 13.7406 12.4007 13.6848C12.3738 13.6289 12.3598 13.5678 12.3598 13.5058C12.3598 13.4438 12.3738 13.3827 12.4007 13.3268C12.4276 13.271 12.4667 13.222 12.5151 13.1833C12.623 13.1073 12.7517 13.0665 12.8836 13.0665C13.0156 13.0665 13.1443 13.1073 13.2521 13.1833C13.3006 13.222 13.3397 13.271 13.3666 13.3268C13.3935 13.3827 13.4075 13.4438 13.4075 13.5058C13.4075 13.5678 13.3935 13.6289 13.3666 13.6848C13.3397 13.7406 13.3006 13.7896 13.2521 13.8283C13.1464 13.907 13.0174 13.9482 12.8855 13.9454ZM12.4711 18.8659V14.7897H13.2925V18.8659H12.4711Z" fill="white"/>
<path d="M14.6933 17.1194V16.4708H17.6947L17.5797 16.6628V16.5707C17.5816 16.3714 17.5355 16.1746 17.4453 15.997C17.3548 15.8207 17.2156 15.6742 17.0442 15.5748C16.8408 15.4623 16.6107 15.4072 16.3784 15.4155C16.134 15.4101 15.8925 15.469 15.6779 15.5862C15.4784 15.6987 15.3157 15.8666 15.2097 16.0697C15.0928 16.3022 15.0355 16.56 15.0426 16.8201C15.0355 17.0844 15.0907 17.3468 15.2038 17.5859C15.3054 17.7933 15.4674 17.9652 15.6683 18.079C15.8908 18.1993 16.1409 18.2589 16.3937 18.2519C16.5663 18.2548 16.7386 18.2348 16.906 18.1924C17.0334 18.1604 17.1542 18.1065 17.263 18.0331C17.3477 17.9756 17.4201 17.9019 17.476 17.8162C17.5217 17.7463 17.5507 17.6669 17.5606 17.584H18.3896C18.3716 17.7582 18.316 17.9265 18.2266 18.0771C18.125 18.2488 17.9906 18.3987 17.8311 18.5185C17.6439 18.6591 17.4334 18.7656 17.2093 18.8333C16.9362 18.9154 16.6521 18.9548 16.3669 18.9502C15.9776 18.9589 15.5928 18.8664 15.2499 18.6818C14.9354 18.508 14.676 18.2493 14.5015 17.9351C14.3243 17.5952 14.2321 17.2174 14.2328 16.8341C14.2334 16.4507 14.3269 16.0733 14.5052 15.734C14.683 15.4206 14.9449 15.1633 15.2613 14.9912C15.6022 14.8088 15.9842 14.717 16.3707 14.7245C16.7558 14.7146 17.1366 14.8073 17.4741 14.9932C17.7795 15.1666 18.0292 15.4236 18.1937 15.7339C18.3676 16.0691 18.4547 16.4425 18.4472 16.82C18.4472 16.8687 18.4459 16.925 18.4432 16.9889C18.4426 17.0326 18.4388 17.0762 18.4317 17.1194L14.6933 17.1194Z" fill="white"/>
<path d="M19.7713 18.8659L18.9075 14.7897H19.7713L20.4314 18.5627H20.2855L21.2797 14.7896H21.9551L20.9264 18.8659H19.7713ZM22.5538 18.8659L21.5099 14.7897H22.1853L23.1873 18.5627H23.0451L23.6978 14.7896H24.5613L23.7015 18.8659H22.5538Z" fill="white"/>
</g>
</g>
<defs>
<linearGradient id="paint0_linear_17_2" x1="0" y1="16" x2="32" y2="16" gradientUnits="userSpaceOnUse">
<stop offset="0.0006" stop-color="#4B8EAE"/>
<stop offset="1" stop-color="#4C6898"/>
</linearGradient>
<clipPath id="clip0_17_2">
<rect width="32" height="32" fill="white"/>
</clipPath>
<clipPath id="clip1_17_2">
<rect width="32" height="32" fill="white"/>
</clipPath>
</defs>
</svg>
