<svg width="128" height="128" viewBox="0 0 128 128" fill="none" xmlns="http://www.w3.org/2000/svg">
<g clip-path="url(#clip0_17_2)">
<g clip-path="url(#clip1_17_2)">
<path d="M64 128C99.3462 128 128 99.3462 128 64C128 28.6538 99.3462 0 64 0C28.6538 0 0 28.6538 0 64C0 99.3462 28.6538 128 64 128Z" fill="url(#paint0_linear_17_2)"/>
<path d="M35.7283 75.5554L29.7565 52.8187H33.4258L38.277 73.2071H38.0924L42.8827 52.8187H46.5671L40.6573 75.5554H35.7283Z" fill="white"/>
<path d="M51.5421 55.7817C51.0099 55.7947 50.4885 55.6298 50.0606 55.3131C49.8668 55.1586 49.7103 54.9623 49.6028 54.739C49.4952 54.5157 49.4394 54.2711 49.4394 54.0232C49.4394 53.7754 49.4952 53.5307 49.6028 53.3074C49.7103 53.0841 49.8668 52.8879 50.0606 52.7333C50.4919 52.4291 51.0068 52.2658 51.5346 52.2658C52.0624 52.2658 52.5772 52.4291 53.0085 52.7333C53.2024 52.8878 53.3589 53.084 53.4664 53.3073C53.574 53.5307 53.6299 53.7753 53.6299 54.0232C53.6299 54.2711 53.574 54.5158 53.4664 54.7391C53.3589 54.9624 53.2024 55.1586 53.0085 55.3131C52.5855 55.6281 52.0694 55.793 51.5421 55.7817ZM49.8845 75.4636V59.1587H53.1698V75.4636H49.8845Z" fill="white"/>
<path d="M58.7733 68.4778V65.8831H70.7789L70.3188 66.6511V66.2827C70.3264 65.4856 70.142 64.6985 69.781 63.9878C69.4192 63.2828 68.8623 62.6967 68.1768 62.2993C67.3634 61.849 66.4427 61.6288 65.5136 61.6621C64.536 61.6404 63.5698 61.8758 62.7118 62.3447C61.9134 62.7946 61.2627 63.4665 60.8386 64.2788C60.3714 65.2087 60.1419 66.2399 60.1706 67.2802C60.1421 68.3377 60.363 69.3871 60.8153 70.3435C61.2217 71.1732 61.8694 71.8607 62.6734 72.3159C63.563 72.7971 64.5637 73.0356 65.5747 73.0076C66.2654 73.0192 66.9545 72.9391 67.6241 72.7695C68.1335 72.6416 68.6168 72.426 69.0522 72.1323C69.3908 71.9024 69.6803 71.6074 69.9039 71.2646C70.0868 70.9853 70.2026 70.6675 70.2422 70.336H73.5584C73.4864 71.0329 73.2639 71.7059 72.9062 72.3085C72.5 72.9951 71.9625 73.595 71.3245 74.0739C70.5756 74.6362 69.7338 75.0625 68.8373 75.3333C67.7449 75.6616 66.6083 75.8193 65.4677 75.8008C63.9106 75.8358 62.371 75.4657 60.9998 74.727C59.7415 74.0319 58.704 72.997 58.0059 71.7404C57.2973 70.3806 56.9285 68.8695 56.9311 67.3362C56.9337 65.8029 57.3077 64.2931 58.0209 62.9358C58.7319 61.6825 59.7796 60.6533 61.0453 59.9646C62.4088 59.2351 63.9366 58.8678 65.4827 58.8979C67.0232 58.8584 68.5464 59.2293 69.8962 59.9728C71.1181 60.6664 72.1167 61.6943 72.7748 62.9357C73.4702 64.2764 73.8188 65.7699 73.7888 67.2799C73.7888 67.4747 73.7835 67.6999 73.7728 67.9555C73.7705 68.1304 73.7552 68.3048 73.7269 68.4774L58.7733 68.4778Z" fill="white"/>
<path d="M79.085 75.4636L75.6301 59.1587H79.085L81.7257 74.2507H81.1419L85.1187 59.1584H87.8203L83.7056 75.4636H79.085ZM90.2154 75.4636L86.0398 59.1587H88.7413L92.7491 74.2507H92.1804L94.791 59.1584H98.245L94.806 75.4636H90.2154Z" fill="white"/>
</g>
</g>
<defs>
<linearGradient id="paint0_linear_17_2" x1="0" y1="64" x2="128" y2="64" gradientUnits="userSpaceOnUse">
<stop offset="0.0006" stop-color="#4B8EAE"/>
<stop offset="1" stop-color="#4C6898"/>
</linearGradient>
<clipPath id="clip0_17_2">
<rect width="128" height="128" fill="white"/>
</clipPath>
<clipPath id="clip1_17_2">
<rect width="128" height="128" fill="white"/>
</clipPath>
</defs>
</svg>
