<svg width="64" height="64" viewBox="0 0 64 64" fill="none" xmlns="http://www.w3.org/2000/svg">
<g clip-path="url(#clip0_17_2)">
<g clip-path="url(#clip1_17_2)">
<path d="M32 64C49.6731 64 64 49.6731 64 32C64 14.3269 49.6731 0 32 0C14.3269 0 0 14.3269 0 32C0 49.6731 14.3269 64 32 64Z" fill="url(#paint0_linear_17_2)"/>
<path d="M17.8642 37.7777L14.8782 26.4093H16.7129L19.1385 36.6036H19.0462L21.4413 26.4093H23.2836L20.3286 37.7777H17.8642Z" fill="white"/>
<path d="M25.771 27.8908C25.5049 27.8973 25.2443 27.8149 25.0303 27.6565C24.9334 27.5793 24.8552 27.4812 24.8014 27.3695C24.7476 27.2579 24.7197 27.1355 24.7197 27.0116C24.7197 26.8877 24.7476 26.7653 24.8014 26.6537C24.8552 26.542 24.9334 26.4439 25.0303 26.3667C25.2459 26.2146 25.5034 26.1329 25.7673 26.1329C26.0312 26.1329 26.2886 26.2146 26.5043 26.3667C26.6012 26.4439 26.6794 26.542 26.7332 26.6537C26.787 26.7653 26.8149 26.8877 26.8149 27.0116C26.8149 27.1355 26.787 27.2579 26.7332 27.3695C26.6794 27.4812 26.6012 27.5793 26.5043 27.6565C26.2927 27.814 26.0347 27.8965 25.771 27.8908ZM24.9422 37.7318V29.5794H26.5849V37.7318H24.9422Z" fill="white"/>
<path d="M29.3867 34.2389V32.9415H35.3894L35.1594 33.3255V33.1413C35.1632 32.7428 35.071 32.3492 34.8905 31.9939C34.7096 31.6414 34.4312 31.3484 34.0884 31.1497C33.6817 30.9245 33.2214 30.8144 32.7568 30.831C32.268 30.8202 31.7849 30.9379 31.3559 31.1724C30.9567 31.3973 30.6314 31.7332 30.4193 32.1394C30.1857 32.6044 30.0709 33.12 30.0853 33.6401C30.0711 34.1689 30.1815 34.6936 30.4076 35.1717C30.6109 35.5866 30.9347 35.9304 31.3367 36.158C31.7815 36.3986 32.2818 36.5178 32.7874 36.5038C33.1327 36.5096 33.4773 36.4695 33.8121 36.3847C34.0668 36.3208 34.3084 36.213 34.5261 36.0661C34.6954 35.9512 34.8401 35.8037 34.9519 35.6323C35.0434 35.4927 35.1013 35.3337 35.1211 35.168H36.7792C36.7432 35.5165 36.6319 35.853 36.4531 36.1542C36.25 36.4975 35.9813 36.7975 35.6622 37.037C35.2878 37.3181 34.8669 37.5313 34.4187 37.6667C33.8724 37.8308 33.3042 37.9097 32.7339 37.9004C31.9553 37.9179 31.1855 37.7329 30.4999 37.3635C29.8707 37.016 29.352 36.4985 29.0029 35.8702C28.6486 35.1903 28.4642 34.4348 28.4656 33.6681C28.4669 32.9015 28.6538 32.1465 29.0105 31.4679C29.366 30.8412 29.8898 30.3266 30.5227 29.9823C31.2044 29.6176 31.9683 29.4339 32.7413 29.449C33.5116 29.4292 34.2732 29.6147 34.9481 29.9864C35.5591 30.3332 36.0584 30.8471 36.3874 31.4678C36.7351 32.1382 36.9094 32.8849 36.8944 33.6399C36.8944 33.7374 36.8917 33.85 36.8864 33.9778C36.8853 34.0652 36.8776 34.1524 36.8635 34.2387L29.3867 34.2389Z" fill="white"/>
<path d="M39.5425 37.7318L37.815 29.5794H39.5425L40.8628 37.1253H40.5709L42.5594 29.5792H43.9101L41.8528 37.7318H39.5425ZM45.1077 37.7318L43.0199 29.5794H44.3707L46.3746 37.1253H46.0902L47.3955 29.5792H49.1225L47.403 37.7318H45.1077Z" fill="white"/>
</g>
</g>
<defs>
<linearGradient id="paint0_linear_17_2" x1="0" y1="32" x2="64" y2="32" gradientUnits="userSpaceOnUse">
<stop offset="0.0006" stop-color="#4B8EAE"/>
<stop offset="1" stop-color="#4C6898"/>
</linearGradient>
<clipPath id="clip0_17_2">
<rect width="64" height="64" fill="white"/>
</clipPath>
<clipPath id="clip1_17_2">
<rect width="64" height="64" fill="white"/>
</clipPath>
</defs>
</svg>
